<?xml version="1.0" encoding="UTF-8"?>
<svg xmlns="http://www.w3.org/2000/svg" id="Layer_1" data-name="Layer 1" viewBox="0 0 24 24">
  <path d="M24,23.5c0,.276-.224,.5-.5,.5h-5.881c-.184,0-.353-.101-.44-.263-.087-.161-.079-.358,.022-.512l4.797-7.226h-2.453c-.504,0-.977-.246-1.266-.659-.289-.412-.359-.941-.187-1.414L22.715,1.569l-7.538,8.496c-.34,.378-.838,.57-1.339,.508-.5-.059-.942-.36-1.18-.808l-3.658-6.325v7.015c0,.498-.243,.969-.649,1.259-.407,.289-.931,.364-1.403,.201l-4.611-1.714,3.417,5.375c.324,.45,.37,1.066,.104,1.584-.265,.518-.792,.84-1.375,.84H2.144l4.484,5.173c.128,.147,.158,.356,.077,.535-.081,.178-.259,.292-.455,.292H.5c-.276,0-.5-.224-.5-.5s.224-.5,.5-.5H5.155l-3.887-4.484c-.242-.288-.289-.655-.132-.987,.15-.328,.462-.528,.832-.528h2.517c.206,0,.391-.113,.484-.296,.094-.184,.078-.4-.042-.567L1.173,10.235c-.16-.259-.169-.552-.027-.809,.166-.291,.563-.506,.951-.381l5.188,1.928c.155,.053,.341,.027,.485-.074,.143-.103,.229-.269,.229-.444V2.848c0-.868,1.033-1.068,1.474-.566l4.058,6.999c.093,.173,.249,.279,.425,.301,.175,.016,.354-.048,.474-.181L22.569,.24c.552-.457,1.005-.248,1.278,.129,.152,.211,.195,.469,.118,.71l-4.934,13.193c-.059,.163-.035,.35,.067,.495s.269,.232,.447,.232h2.491c.359,0,.674,.189,.842,.508,.167,.318,.149,.681-.05,.971l-4.283,6.521h4.955c.276,0,.5,.224,.5,.5Zm-7.961-4.5h-1.039v-3c0-.457-.31-.855-.748-.968-.446-.114-.907,.082-1.092,.43l-1.465,1.966-.935-1.078c-.275-.32-.722-.438-1.105-.287-.391,.144-.654,.521-.654,.938v2h-.961c-.38,0-.723,.211-.895,.553-.17,.341-.134,.742,.095,1.047l2.4,3.2c.166,.22,.479,.266,.7,.101,.221-.166,.266-.479,.1-.7l-2.4-3.2h1.461c.276,0,.5-.224,.5-.5l.002-2.497,1.345,1.55c.099,.114,.248,.18,.396,.172,.151-.006,.292-.08,.382-.201l1.875-2.523v3.5c0,.276,.224,.5,.5,.5h1.539l-2.438,3.251c-.166,.221-.121,.534,.1,.7,.09,.067,.195,.1,.299,.1,.152,0,.302-.069,.4-.2l2.438-3.25c.229-.306,.265-.707,.094-1.049-.171-.341-.514-.552-.894-.552Z"/>
</svg>
