<?xml version="1.0" encoding="UTF-8"?>
<svg xmlns="http://www.w3.org/2000/svg" id="Layer_1" data-name="Layer 1" viewBox="0 0 24 24">
  <path d="m23.5,11c-.276,0-.5.224-.5.5v4.5h-7.293l-5.707-5.707V1h2.5c.276,0,.5-.224.5-.5s-.224-.5-.5-.5H4.5C2.019,0,0,2.019,0,4.5v15c0,2.481,2.019,4.5,4.5,4.5h15c2.481,0,4.5-2.019,4.5-4.5v-8c0-.276-.224-.5-.5-.5ZM4.5,1h4.5v9.191L1,14.191V4.5c0-1.93,1.57-3.5,3.5-3.5ZM1,19.5v-4.191l8.401-4.201,5.45,5.45-4.459,6.441h-5.892c-1.93,0-3.5-1.57-3.5-3.5Zm18.5,3.5h-7.892l4.154-6h7.238v2.5c0,1.93-1.57,3.5-3.5,3.5Zm-1-15.5c1.103,0,2-.897,2-2s-.897-2-2-2-2,.897-2,2,.897,2,2,2Zm0-3c.552,0,1,.448,1,1s-.448,1-1,1-1-.448-1-1,.448-1,1-1Zm-3.874,4.867l1.972,1.812c.511.498,1.187.772,1.902.772s1.392-.274,1.893-.763l1.995-1.836c1.04-1.035,1.612-2.411,1.612-3.875s-.572-2.84-1.612-3.875c-1.038-1.034-2.419-1.604-3.888-1.604s-2.85.569-3.889,1.604c-1.039,1.035-1.611,2.411-1.611,3.875s.572,2.84,1.626,3.889Zm.69-7.055c.851-.847,1.981-1.312,3.184-1.312s2.333.466,3.183,1.312c.85.846,1.317,1.97,1.317,3.166s-.468,2.32-1.304,3.152l-1.991,1.832c-.646.631-1.753.641-2.421-.01l-1.968-1.809c-.849-.846-1.316-1.97-1.316-3.166s.468-2.32,1.316-3.166Z"/>
</svg>
