<?xml version="1.0" standalone="no"?>
<!DOCTYPE svg PUBLIC "-//W3C//DTD SVG 20010904//EN"
 "http://www.w3.org/TR/2001/REC-SVG-20010904/DTD/svg10.dtd">
<svg version="1.0" xmlns="http://www.w3.org/2000/svg"
 width="1024.000000pt" height="1024.000000pt" viewBox="0 0 1024.000000 1024.000000"
 preserveAspectRatio="xMidYMid meet">

<g transform="translate(0.000000,1024.000000) scale(0.100000,-0.100000)"
fill="#000000" stroke="none">
<path d="M8392 9787 c-17 -28 -132 -239 -257 -467 -125 -228 -251 -458 -280
-510 -29 -52 -171 -313 -315 -580 -144 -267 -265 -489 -267 -494 -3 -4 -56
128 -117 295 -62 167 -120 318 -128 334 -82 152 -311 200 -456 95 -76 -55 -66
-33 -346 -760 -63 -162 -169 -439 -236 -615 -67 -176 -138 -365 -159 -420 -21
-55 -48 -124 -59 -154 l-19 -55 -25 40 c-14 21 -64 104 -112 183 l-86 143 0
-48 c0 -27 5 -101 10 -164 5 -63 23 -306 40 -540 16 -234 31 -446 34 -471 l5
-45 -228 4 c-234 5 -420 -6 -591 -34 -479 -78 -932 -275 -1304 -567 -49 -38
-95 -70 -102 -71 -7 -1 -147 116 -311 260 -164 143 -505 440 -758 659 -253
219 -534 463 -624 542 l-164 144 -30 -28 c-49 -47 -389 -414 -386 -417 2 -1
144 -126 314 -277 171 -151 477 -421 680 -599 452 -395 688 -603 695 -610 3
-3 40 -36 82 -73 l78 -68 -38 -52 c-111 -151 -233 -392 -294 -581 -78 -243
-109 -439 -115 -726 -8 -344 21 -554 118 -852 244 -758 915 -1397 1749 -1666
574 -185 1280 -195 1845 -26 841 252 1539 880 1815 1634 52 142 103 339 126
490 26 161 26 538 1 700 -66 428 -229 810 -485 1139 l-66 84 50 46 c187 172
475 438 749 691 175 162 412 380 525 484 113 104 242 225 288 268 l83 79 -212
220 c-117 120 -216 219 -221 219 -5 0 -178 -156 -385 -347 -207 -192 -465
-429 -572 -527 -108 -98 -302 -276 -431 -395 -129 -119 -259 -238 -288 -265
-63 -58 -40 -63 -204 50 -205 142 -436 254 -698 338 -147 48 -412 106 -480
106 -22 0 -40 3 -39 8 0 4 55 55 122 114 67 58 235 209 372 333 138 125 284
257 327 294 42 36 75 67 73 69 -2 2 -87 -26 -191 -62 -103 -36 -189 -64 -191
-62 -2 2 1 14 6 27 10 22 194 488 371 938 l73 184 82 -219 c45 -121 89 -234
99 -252 26 -50 86 -105 146 -135 70 -35 172 -37 257 -6 96 37 129 80 307 410
206 380 410 748 903 1634 221 396 403 726 405 733 3 12 -110 77 -424 245
l-107 57 -29 -53z m-2682 -4872 c395 -61 748 -200 1050 -415 615 -436 911
-1139 775 -1836 -101 -519 -448 -999 -935 -1292 -273 -165 -562 -268 -890
-319 -141 -21 -517 -24 -655 -5 -533 76 -975 281 -1324 616 -406 391 -610 887
-587 1426 19 460 199 854 547 1202 369 367 852 579 1464 642 88 9 454 -4 555
-19z"/>
</g>
</svg>
