<?xml version="1.0" standalone="no"?>
<!DOCTYPE svg PUBLIC "-//W3C//DTD SVG 20010904//EN"
 "http://www.w3.org/TR/2001/REC-SVG-20010904/DTD/svg10.dtd">
<svg version="1.0" xmlns="http://www.w3.org/2000/svg"
 width="512.000000pt" height="512.000000pt" viewBox="0 0 512.000000 512.000000"
 preserveAspectRatio="xMidYMid meet">

<g transform="translate(0.000000,512.000000) scale(0.100000,-0.100000)"
fill="#000000" stroke="none">
<path d="M3005 4505 c-33 -13 -147 -54 -254 -91 -203 -71 -207 -75 -101 -88
30 -4 60 -10 67 -14 8 -5 -82 -115 -258 -316 -149 -170 -277 -318 -285 -330
-25 -36 -18 -91 17 -131 l31 -35 164 0 c90 0 164 -3 164 -6 0 -6 -99 -152
-294 -434 -55 -80 -100 -146 -101 -148 -1 -1 -35 -12 -76 -23 -300 -83 -580
-320 -728 -616 -87 -174 -122 -331 -123 -548 0 -220 34 -370 127 -560 65 -132
125 -214 237 -321 237 -228 509 -335 849 -335 284 0 535 87 754 261 318 253
490 666 446 1074 -48 442 -304 806 -696 987 -134 61 -267 93 -478 112 l-28 2
73 100 c382 529 388 537 388 577 0 28 -8 46 -29 70 l-29 33 -156 3 -156 3 27
33 c95 112 326 377 333 381 5 3 19 -27 31 -67 13 -40 24 -66 26 -57 2 9 33
127 67 262 35 136 61 247 58 246 -4 0 -34 -11 -67 -24z m-399 -1796 c392 -70
699 -354 796 -735 33 -129 33 -381 0 -504 -117 -438 -521 -750 -970 -750 -77
0 -222 22 -302 46 -252 75 -502 302 -608 550 -70 166 -98 379 -73 555 15 104
61 244 108 329 145 263 372 436 657 500 94 21 298 26 392 9z"/>
</g>
</svg>
